<?xml version="1.0" encoding="UTF-8"?>
<svg id="a" data-name="Layer 1" xmlns="http://www.w3.org/2000/svg" xmlns:xlink="http://www.w3.org/1999/xlink" viewBox="0 0 1282.7 1564.45">
  <defs>
    <linearGradient id="b" x1="863.15" y1="1269.65" x2="1116.06" y2="210.28" gradientTransform="translate(-13.63 15.76) rotate(-1.03)" gradientUnits="userSpaceOnUse">
      <stop offset="0" stop-color="#120b30"/>
      <stop offset="1" stop-color="#29abe2"/>
    </linearGradient>
    <linearGradient id="c" x1="669.07" y1="1106.24" x2="669.07" y2="560.24" gradientUnits="userSpaceOnUse">
      <stop offset=".13" stop-color="#c20"/>
      <stop offset=".83" stop-color="#faa307"/>
    </linearGradient>
    <linearGradient id="d" x1="402.21" y1="1412.58" x2="500.57" y2="810.66" gradientUnits="userSpaceOnUse">
      <stop offset="0" stop-color="#a00117"/>
      <stop offset=".95" stop-color="#ed0000"/>
    </linearGradient>
    <linearGradient id="e" x1="560.23" y1="214.89" x2="837.2" y2="214.89" gradientUnits="userSpaceOnUse">
      <stop offset="0" stop-color="#ff7300"/>
      <stop offset=".17" stop-color="#fc7c00"/>
      <stop offset=".46" stop-color="#f39500"/>
      <stop offset=".82" stop-color="#e6be00"/>
      <stop offset=".87" stop-color="#e5c500"/>
    </linearGradient>
    <linearGradient id="f" x1="816.51" y1="128.32" x2="905.19" y2="-1.75" gradientUnits="userSpaceOnUse">
      <stop offset="0" stop-color="#258ec1"/>
      <stop offset="1" stop-color="#90c4fc"/>
    </linearGradient>
    <linearGradient id="g" x1="817.34" y1="127.1" x2="906.02" y2="-2.96" gradientUnits="userSpaceOnUse">
      <stop offset="0" stop-color="#258ec1"/>
      <stop offset="1" stop-color="#29abe2"/>
    </linearGradient>
    <linearGradient id="h" x1="561.23" y1="353.38" x2="642.28" y2="353.38" gradientUnits="userSpaceOnUse">
      <stop offset="0" stop-color="#a00117"/>
      <stop offset="0" stop-color="#a00016"/>
      <stop offset=".15" stop-color="#bc000e"/>
      <stop offset=".31" stop-color="#d10008"/>
      <stop offset=".49" stop-color="#e10003"/>
      <stop offset=".7" stop-color="#ea0000"/>
      <stop offset="1" stop-color="#ed0000"/>
    </linearGradient>
  </defs>
  <path d="m1277.93,450.62l-275.04,764.27c-1.58,4.39-3.16,8.78-4.74,13.18-4.05,11.26-8.1,22.52-12.16,33.78-5.5,15.27-10.99,30.55-16.49,45.82-5.91,16.43-11.83,32.87-17.74,49.3-5.3,14.74-10.61,29.48-15.91,44.22-3.67,10.19-7.33,20.38-11,30.57-1,2.78-1.79,6.5-3.18,8.88-1.06,1.82-3.1,2.51-4.23.36l-4.12-7.86c-.4-.76-.47-1.68-.23-2.52,2.56-8.92,3.29-18.78,1.78-28.77l-91.47-603.03-30.12-198.57c-.09-.57-.03-1.16.16-1.69l168.43-468.04c14.2-39.43,52.85-51.78,75.99-24.28l230.67,274.04c14.53,17.26,18.32,45.57,9.41,70.35Z" style="fill: url(#b);"/>
  <path d="m926.69,1432.4c-.56,2.05-3.27,2.47-4.38.66l-237.55-388.48-103.56-169.35-171.01-279.71c-.51-.83-.48-1.91.11-2.69,4.01-5.3,9.21-9.77,15.35-13.01l280.75-148.1c28.19-14.87,62.65,2.29,67.73,33.74l46.34,285.79,26.65,164.4,80.59,497.08c1.09,6.77.67,13.45-1.02,19.66Z" style="fill: url(#c);"/>
  <path d="m925.31,1435.78l-7.88,17.02c-.11.24-.27.47-.45.66-23.71,24.95-51,46.48-81.04,63.75-52.26,30.04-112.86,47.23-177.47,47.23-.65,0-1.3,0-1.95,0-70.8-.38-136.24-37.79-173.18-98.19l-179.71-293.91L12.8,696.71c-18.98-31.03-16.57-67.08,5.37-80.51l256.66-156.95c21.96-13.41,55.15.87,74.13,31.92l54.3,88.8,171.86,281.09,103.56,169.35,240.24,392.87,6.26,10.25c.42.68.47,1.53.13,2.26Z" style="fill: url(#d);"/>
  <g>
    <path d="m837.2,214.89c-123.1,8.5-129.99,15.39-138.48,138.48-8.5-123.1-15.39-129.99-138.48-138.48,123.1-8.5,129.99-15.39,138.48-138.48,8.5,123.1,15.39,129.99,138.48,138.48Z" style="fill: url(#e);"/>
    <path d="m837.2,214.89c-123.1,8.5-129.99,15.39-138.48,138.48-8.5-123.1-15.39-129.99-138.48-138.48,123.1-8.5,129.99-15.39,138.48-138.48,8.5,123.1,15.39,129.99,138.48,138.48Z" style="fill: url(#e);"/>
  </g>
  <g>
    <path d="m928.31,76.41c-67.92,4.69-71.72,8.49-76.41,76.41-4.69-67.92-8.49-71.72-76.41-76.41,67.92-4.69,71.72-8.49,76.41-76.41,4.69,67.92,8.49,71.72,76.41,76.41Z" style="fill: url(#f);"/>
    <path d="m928.31,76.41c-67.92,4.69-71.72,8.49-76.41,76.41-4.69-67.92-8.49-71.72-76.41-76.41,67.92-4.69,71.72-8.49,76.41-76.41,4.69,67.92,8.49,71.72,76.41,76.41Z" style="fill: url(#g);"/>
  </g>
  <g>
    <path d="m642.28,353.38c-36.02,2.49-38.04,4.5-40.53,40.53-2.49-36.02-4.5-38.04-40.53-40.53,36.02-2.49,38.04-4.5,40.53-40.53,2.49,36.02,4.5,38.04,40.53,40.53Z" style="fill: url(#h);"/>
    <path d="m642.28,353.38c-36.02,2.49-38.04,4.5-40.53,40.53-2.49-36.02-4.5-38.04-40.53-40.53,36.02-2.49,38.04-4.5,40.53-40.53,2.49,36.02,4.5,38.04,40.53,40.53Z" style="fill: url(#h);"/>
  </g>
</svg>