<?xml version="1.0" encoding="UTF-8"?>
<svg id="a" data-name="Layer 1" xmlns="http://www.w3.org/2000/svg" xmlns:xlink="http://www.w3.org/1999/xlink" viewBox="0 0 1572.68 622.21">
  <defs>
    <filter id="b" data-name="drop-shadow-1" filterUnits="userSpaceOnUse">
      <feOffset dx="1" dy="7"/>
      <feGaussianBlur result="c" stdDeviation="5"/>
      <feFlood flood-color="#000" flood-opacity=".75"/>
      <feComposite in2="c" operator="in"/>
      <feComposite in="SourceGraphic"/>
    </filter>
    <linearGradient id="d" x1="956.44" y1="604.23" x2="995.36" y2="324.02" gradientUnits="userSpaceOnUse">
      <stop offset="0" stop-color="#212121"/>
      <stop offset=".17" stop-color="#242424"/>
      <stop offset=".34" stop-color="#303030"/>
      <stop offset=".5" stop-color="#444"/>
      <stop offset=".55" stop-color="#4c4c4c"/>
      <stop offset=".56" stop-color="#4a4a4a"/>
      <stop offset=".73" stop-color="#303030"/>
      <stop offset=".88" stop-color="#1f1f1f"/>
      <stop offset="1" stop-color="#1a1a1a"/>
    </linearGradient>
    <linearGradient id="e" x1="285.7" y1="406.07" x2="369.21" y2="56.26" gradientTransform="translate(-4.94 18.39) rotate(-1.03)" gradientUnits="userSpaceOnUse">
      <stop offset="0" stop-color="#120b30"/>
      <stop offset="1" stop-color="#29abe2"/>
    </linearGradient>
    <linearGradient id="f" x1="220.93" y1="365.29" x2="220.93" y2="185" gradientUnits="userSpaceOnUse">
      <stop offset=".13" stop-color="#c20"/>
      <stop offset=".83" stop-color="#faa307"/>
    </linearGradient>
    <linearGradient id="g" x1="132.81" y1="466.45" x2="165.29" y2="267.69" gradientUnits="userSpaceOnUse">
      <stop offset="0" stop-color="#a00117"/>
      <stop offset=".95" stop-color="#ed0000"/>
    </linearGradient>
    <linearGradient id="h" x1="184.99" y1="70.96" x2="276.45" y2="70.96" gradientUnits="userSpaceOnUse">
      <stop offset="0" stop-color="#ff7300"/>
      <stop offset=".17" stop-color="#fc7c00"/>
      <stop offset=".46" stop-color="#f39500"/>
      <stop offset=".82" stop-color="#e6be00"/>
      <stop offset=".87" stop-color="#e5c500"/>
    </linearGradient>
    <linearGradient id="i" x1="269.62" y1="42.37" x2="298.9" y2="-.58" gradientUnits="userSpaceOnUse">
      <stop offset="0" stop-color="#258ec1"/>
      <stop offset="1" stop-color="#90c4fc"/>
    </linearGradient>
    <linearGradient id="j" x1="269.89" y1="41.97" x2="299.18" y2="-.98" gradientUnits="userSpaceOnUse">
      <stop offset="0" stop-color="#258ec1"/>
      <stop offset="1" stop-color="#29abe2"/>
    </linearGradient>
    <linearGradient id="k" x1="185.32" y1="116.69" x2="212.09" y2="116.69" gradientUnits="userSpaceOnUse">
      <stop offset="0" stop-color="#a00117"/>
      <stop offset="0" stop-color="#a00016"/>
      <stop offset=".15" stop-color="#bc000e"/>
      <stop offset=".31" stop-color="#d10008"/>
      <stop offset=".49" stop-color="#e10003"/>
      <stop offset=".7" stop-color="#ea0000"/>
      <stop offset="1" stop-color="#ed0000"/>
    </linearGradient>
  </defs>
  <g style="filter: url(#b);">
    <path d="m519.76,225.01v138.34h27.24c29.8,0,47.68-13.2,66.4-34.91v77.05c-18.73-21.71-36.61-34.91-66.4-34.91h-27.24v140.05h10.64c59.59,0,91.09-30.22,107.7-55.76l18.3,61.72h-224.33c12.34-26.39,11.07-36.61,11.07-66.41v-166.01c0-29.8,1.28-40.01-11.07-66.4h226.46l-29.37,58.74c-36.18-43.84-75.77-51.08-109.4-51.51Zm308.46,104.18c7.59,14.5,15.53,38.66,4.49,62.12l-25.2,52.12-45.9-94.22c-2.07-5.52-3.45-12.42,2.07-20.02h-89.74c7.94,6.56,22.09,29.68,25.54,36.58l74.55,150.83h3.11l64.54-133.91c11.74-23.81,16.57-32.44,35.2-53.5h-48.66Zm197.42,143.92c0,18.29,4.83,35.89,9.32,43.49-59.71-20.36-98.02,5.18-130.46,5.18s-60.4-17.6-60.4-48.66c0-35.89,31.06-47.63,66.61-58.67,32.79-10.7,64.89-22.78,64.54-56.95-.35-17.95-13.81-26.58-27.27-26.58-14.84,0-30.03,9.66-30.03,28.65,0,10.01,5.18,20.02,15.53,25.54-5.87,8.97-16.91,13.46-27.96,13.46-16.57,0-32.79-8.63-32.79-26.92,0-30.37,33.13-45.56,69.03-45.56,41.42,0,83.87,20.71,83.87,63.16v83.87Zm-62.12-78.69c-21.74,20.71-60.4,35.2-59.36,72.13,1.04,34.17,31.75,42.11,59.36,37.62v-109.75Zm281.97-27.61c0-25.54-16.22-40.73-36.58-40.73-28.99,0-67.99,32.1-89.39,94.22v-91.12c-22.09,12.08-48.67,17.95-72.82,19.33,12.08,16.57,10.7,32.79,10.7,40.04v74.21c0,24.16,1.04,32.44-8.97,53.84h80.07c-8.97-21.4-8.97-29.68-8.97-53.84v-25.2c10.01-42.45,39.69-82.49,54.19-82.49,5.87,0,9.66,6.56,9.66,22.43v85.25c0,24.16,1.04,32.44-8.97,53.84h80.07c-8.97-21.4-8.97-29.68-8.97-53.84v-95.95Zm277.15-37.62c9.66,14.5,22.09,38.66,14.15,62.12l-29.68,90.08h-4.14l-54.53-132.19c-1.73-5.52-2.76-12.42,3.11-20.02h-112.17v-61.78h-3.11c-5.52,30.72-26.92,56.95-74.55,61.78,9.32,4.49,15.19,11.39,15.19,21.74v120.11c0,42.45,41.07,52.12,87.32,51.43v-.69c-13.12-7.59-24.85-15.19-24.85-50.39v-136.33h24.85v-2.47c8.28,7.14,16.59,19.16,22.44,33.18l58.33,138.4c26.23,1.73,39,19.33,39,36.93,0,21.05-16.57,39-41.42,40.04-12.42.34-25.89-5.52-37.28-18.64-10.01,6.9-14.84,17.6-14.5,27.27.69,16.91,14.15,32.44,38.31,32.44,19.33,0,40.73-16.22,55.91-61.78l59.71-177.75c7.94-24.16,12.08-32.44,27.96-53.5h-50.04Z" style="fill: url(#d);"/>
  </g>
  <g>
    <path d="m421.98,148.8s-90.82,252.37-90.82,252.37l-1.57,4.35c-1.34,3.72-2.68,7.44-4.01,11.16l-5.45,15.13c-1.95,5.43-3.91,10.85-5.86,16.28-1.75,4.87-3.5,9.73-5.25,14.6-1.21,3.36-2.42,6.73-3.63,10.09-.33.92-.59,2.15-1.05,2.93-.35.6-1.02.83-1.4.12l-1.36-2.59c-.13-.25-.16-.55-.08-.83.84-2.95,1.09-6.2.59-9.5l-30.2-199.13-9.95-65.57c-.03-.19-.01-.38.05-.56l55.62-154.55c4.69-13.02,17.45-17.1,25.09-8.02l76.17,90.49c4.8,5.7,6.05,15.05,3.11,23.23Z" style="fill: url(#e);"/>
    <path d="m306,472.99c-.18.68-1.08.82-1.45.22l-78.44-128.28-34.2-55.92-56.47-92.36c-.17-.28-.16-.63.04-.89,1.33-1.75,3.04-3.23,5.07-4.3l92.71-48.9c9.31-4.91,20.69.76,22.37,11.14l15.3,94.37,8.8,54.29,26.61,164.14c.36,2.24.22,4.44-.34,6.49Z" style="fill: url(#f);"/>
    <path d="m305.55,474.11l-2.6,5.62c-.04.08-.09.15-.15.22-7.83,8.24-16.84,15.35-26.76,21.05-17.26,9.92-37.27,15.6-58.6,15.6-.21,0-.43,0-.64,0-23.38-.13-44.99-12.48-57.18-32.42l-59.34-97.05L4.23,230.06c-6.27-10.25-5.47-22.15,1.77-26.59l84.75-51.83c7.25-4.43,18.21.29,24.48,10.54l17.93,29.32,56.75,92.82,34.2,55.92,79.33,129.73,2.07,3.38c.14.23.15.51.04.75Z" style="fill: url(#g);"/>
    <g>
      <path d="m276.45,70.96c-40.65,2.81-42.92,5.08-45.73,45.73-2.81-40.65-5.08-42.92-45.73-45.73,40.65-2.81,42.92-5.08,45.73-45.73,2.81,40.65,5.08,42.92,45.73,45.73Z" style="fill: url(#h);"/>
      <path d="m276.45,70.96c-40.65,2.81-42.92,5.08-45.73,45.73-2.81-40.65-5.08-42.92-45.73-45.73,40.65-2.81,42.92-5.08,45.73-45.73,2.81,40.65,5.08,42.92,45.73,45.73Z" style="fill: url(#h);"/>
    </g>
    <g>
      <path d="m306.54,25.23c-22.43,1.55-23.68,2.8-25.23,25.23-1.55-22.43-2.8-23.68-25.23-25.23,22.43-1.55,23.68-2.8,25.23-25.23,1.55,22.43,2.8,23.68,25.23,25.23Z" style="fill: url(#i);"/>
      <path d="m306.54,25.23c-22.43,1.55-23.68,2.8-25.23,25.23-1.55-22.43-2.8-23.68-25.23-25.23,22.43-1.55,23.68-2.8,25.23-25.23,1.55,22.43,2.8,23.68,25.23,25.23Z" style="fill: url(#j);"/>
    </g>
    <g>
      <path d="m212.09,116.69c-11.9.82-12.56,1.49-13.38,13.38-.82-11.9-1.49-12.56-13.38-13.38,11.9-.82,12.56-1.49,13.38-13.38.82,11.9,1.49,12.56,13.38,13.38Z" style="fill: url(#k);"/>
      <path d="m212.09,116.69c-11.9.82-12.56,1.49-13.38,13.38-.82-11.9-1.49-12.56-13.38-13.38,11.9-.82,12.56-1.49,13.38-13.38.82,11.9,1.49,12.56,13.38,13.38Z" style="fill: url(#k);"/>
    </g>
  </g>
</svg>